<?xml version="1.0" standalone="no"?><svg xmlns="http://www.w3.org/2000/svg" viewBox="0 0 1440 320"><path fill="#012c56" fill-opacity="1" d="M0,160L18.5,138.7C36.9,117,74,75,111,80C147.7,85,185,139,222,138.7C258.5,139,295,85,332,53.3C369.2,21,406,11,443,21.3C480,32,517,64,554,69.3C590.8,75,628,53,665,74.7C701.5,96,738,160,775,197.3C812.3,235,849,245,886,250.7C923.1,256,960,256,997,266.7C1033.8,277,1071,299,1108,266.7C1144.6,235,1182,149,1218,138.7C1255.4,128,1292,192,1329,213.3C1366.2,235,1403,213,1422,202.7L1440,192L1440,0L1421.5,0C1403.1,0,1366,0,1329,0C1292.3,0,1255,0,1218,0C1181.5,0,1145,0,1108,0C1070.8,0,1034,0,997,0C960,0,923,0,886,0C849.2,0,812,0,775,0C738.5,0,702,0,665,0C627.7,0,591,0,554,0C516.9,0,480,0,443,0C406.2,0,369,0,332,0C295.4,0,258,0,222,0C184.6,0,148,0,111,0C73.8,0,37,0,18,0L0,0Z"></path></svg>