<?xml version="1.0" encoding="iso-8859-1"?>
<!-- Generator: Adobe Illustrator 19.0.0, SVG Export Plug-In . SVG Version: 6.00 Build 0)  -->
<svg version="1.1" id="Layer_1" xmlns="http://www.w3.org/2000/svg" xmlns:xlink="http://www.w3.org/1999/xlink" x="0px" y="0px"
	 viewBox="0 0 496 496" style="enable-background:new 0 0 496 496;" xml:space="preserve">
<path style="fill:#6965A8;" d="M408,201.2v-76c0-35.2-31.2-60-66.4-60H154.4c-35.2,0-66.4,24.8-66.4,60v76H408z"/>
<g>
	<path style="fill:#8989CC;" d="M64,273.2H39.2c-18.4,0-33.6-13.6-33.6-32l0,0c0-18.4,15.2-32,33.6-32H72"/>
	<path style="fill:#8989CC;" d="M432,273.2h24.8c18.4,0,33.6-13.6,33.6-32l0,0c0-18.4-15.2-32-33.6-32H424"/>
</g>
<polygon style="fill:#6965A8;" points="442.4,321.2 53.6,321.2 76.8,129.2 419.2,129.2 "/>
<polygon style="fill:#FFFFFF;" points="423.2,321.2 72.8,321.2 96,129.2 400,129.2 "/>
<polyline style="fill:#EAEAEA;" points="399.2,129.2 423.2,321.2 72,321.2 "/>
<path style="fill:#8989CC;" d="M408,377.2v-81.6c0-35.2-31.2-62.4-66.4-62.4H154.4c-35.2,0-66.4,28-66.4,62.4v81.6H408z"/>
<path style="fill:#6965A8;" d="M496,465.2V350.8c0-42.4-34.4-77.6-76-77.6H76c-41.6,0-76,35.2-76,77.6v112.8v1.6H496z"/>
<path style="fill:#FFC114;" d="M92,378c-16.8,16.8-44,16.8-60.8,0s-16.8-44,0-60.8s44-16.8,60.8,0S108.8,361.2,92,378z"/>
<path style="fill:#FF8A15;" d="M92,317.2c16.8,16.8,16.8,44,0,60.8s-44,16.8-60.8,0"/>
<circle style="fill:#FFC114;" cx="434.4" cy="347.6" r="43.2"/>
<path style="fill:#FF8A15;" d="M464.8,317.2c16.8,16.8,16.8,44,0,60.8s-44,16.8-60.8,0"/>
<path style="fill:#C4C4C4;" d="M376,409.2v-64.8c0-28.8-21.6-55.2-50.4-55.2H171.2c-28.8,0-51.2,26.4-51.2,55.2v64.8H376z"/>
<path style="fill:#A8A8A8;" d="M168,409.2h208v-64.8c0-28.8-21.6-55.2-50.4-55.2"/>
<g>
	<path style="fill:#6965A8;" d="M152,393.2v-65.6c0-4.8,3.2-8.8,8-8.8l0,0c4.8,0,8,4,8,8.8v65.6"/>
	<path style="fill:#6965A8;" d="M184,393.2v-65.6c0-4.8,3.2-8.8,8-8.8l0,0c4.8,0,8,4,8,8.8v65.6"/>
	<path style="fill:#6965A8;" d="M224,393.2v-65.6c0-4.8,3.2-8.8,8-8.8l0,0c4.8,0,8,4,8,8.8v65.6"/>
	<path style="fill:#6965A8;" d="M256,393.2v-65.6c0-4.8,3.2-8.8,8-8.8l0,0c4.8,0,8,4,8,8.8v65.6"/>
	<path style="fill:#6965A8;" d="M296,393.2v-65.6c0-4.8,3.2-8.8,8-8.8l0,0c4.8,0,8,4,8,8.8v65.6"/>
	<path style="fill:#6965A8;" d="M328,393.2v-65.6c0-4.8,3.2-8.8,8-8.8l0,0c4.8,0,8,4,8,8.8v65.6"/>
</g>
<g>
	<path style="fill:#8989CC;" d="M0,465.2L0,465.2c0-16.8,13.6-32,30.4-32h435.2c16.8,0,30.4,14.4,30.4,31.2l0,0"/>
	<path style="fill:#8989CC;" d="M76.8,133.2L76.8,133.2c0-12,9.6-20,20.8-20h300.8c12,0,20.8,8.8,20.8,20.8l0,0"/>
</g>
<g>
	<path style="fill:#FF8A15;" d="M160,65.2V44.4c0-7.2,4.8-13.6,12-13.6l0,0c7.2,0,12,6.4,12,13.6v20.8"/>
	<path style="fill:#FF8A15;" d="M312,65.2V44.4c0-7.2,4.8-13.6,12-13.6l0,0c7.2,0,12,6.4,12,13.6v20.8"/>
</g>
<g>
</g>
<g>
</g>
<g>
</g>
<g>
</g>
<g>
</g>
<g>
</g>
<g>
</g>
<g>
</g>
<g>
</g>
<g>
</g>
<g>
</g>
<g>
</g>
<g>
</g>
<g>
</g>
<g>
</g>
</svg>
